<?xml version="1.0" encoding="UTF-8"?> <svg xmlns="http://www.w3.org/2000/svg" width="18" height="26" viewBox="0 0 18 26" fill="none"><g clip-path="url(#clip0_17659_6643)"><path d="M13.5575 25.084L13.5497 0.45166H4.07943L4.07776 13.707V25.0845L8.81926 21.4619L13.5575 25.084Z" fill="#1D3E74"></path><path d="M16.7993 12.0347L18 11.2704L16.7997 10.5055L17.8276 9.52274L16.5005 9.0059L17.3156 7.84182L15.9128 7.5921L16.4843 6.29283L15.0595 6.32076L15.3655 4.93521L14.0048 5.23209L14.0032 0H3.62581L3.62548 5.14877L2.63774 4.93242L2.94282 6.31773L1.51781 6.28927L2.08895 7.58901L0.685831 7.83817L1.50053 9.00202L0.173042 9.51842L1.20102 10.5021L0 11.2661L1.20015 12.0313L0.172442 13.0141L1.49937 13.5313L0.684496 14.6945L2.08678 14.9444L1.51575 16.2437L2.94035 16.216L2.63423 17.6014L3.62471 17.3852L3.62415 25.9994L8.81922 22.0305L14.011 26L14.0084 17.3083L15.3622 17.6046L15.0566 16.2189L16.4818 16.2469L15.9108 14.9475L17.3137 14.6986L16.4992 13.5346L17.8267 13.0181L16.7993 12.0347ZM13.5497 0.451487L13.5508 4.01703L12.696 4.38915L12.4463 2.99268L11.2768 3.80357L10.758 2.48238L9.7703 3.505L9.0025 2.31L8.23357 3.50477L7.24629 2.48142L6.72683 3.80271L5.55744 2.99072L5.307 4.38679L4.07895 3.85249L4.07939 0.451487H13.5497ZM8.81922 21.4617L4.07772 25.0843V18.6813L5.30329 18.1479L5.55377 19.5445L6.72296 18.7332L7.24205 20.0546L8.2297 19.032L8.99773 20.2273L9.76643 19.0328L10.7533 20.0559L11.2724 18.7347L12.4422 19.5458L12.6925 18.1491L13.5554 18.5253L13.5574 25.0838L8.81922 21.4617Z" fill="#F3BC2A"></path><path d="M8.99601 3.82764C4.86066 3.82764 1.51123 7.16539 1.51123 11.279C1.51123 15.3901 4.86066 18.7214 8.99601 18.7214C13.1295 18.7214 16.4857 15.3901 16.4857 11.279C16.4857 7.16539 13.1295 3.82764 8.99601 3.82764Z" fill="#1D3E74"></path><path d="M4.96275 9.52466C5.66146 7.92274 7.2457 6.8888 9.00021 6.8888H9.01141C10.7654 6.8888 12.3502 7.92327 13.0483 9.52466L13.1199 9.68831H13.9915L13.8405 9.31453C12.7654 6.6606 9.72133 5.37295 7.05567 6.44222C5.74953 6.96663 4.698 8.0136 4.17063 9.31453L4.01904 9.68831H4.89123L4.96275 9.52466Z" fill="white"></path><path d="M13.0376 13.0541C12.3325 14.6391 10.752 15.6629 9.01084 15.6629H9.00871C7.26808 15.6624 5.68811 14.6383 4.98353 13.0541L4.91147 12.8921H4.03662L4.19302 13.2683C5.02463 15.2647 6.97077 16.4721 9.01778 16.4718C9.68126 16.4718 10.356 16.3449 11.0066 16.0765C12.293 15.5463 13.2949 14.549 13.8281 13.2683L13.9851 12.8921H13.1097L13.0376 13.0541Z" fill="white"></path></g><defs><clipPath id="clip0_17659_6643"><rect width="18" height="26" fill="white"></rect></clipPath></defs></svg> 